<?xml version="1.0" encoding="utf-8"?>
<svg viewBox="0 0 511 511" fill="none" xmlns="http://www.w3.org/2000/svg" preserveAspectRatio="xMidYMid meet" version="1.2" baseProfile="tiny-ps" xml:space="preserve">
  <title>Rhendra Networking Logo</title>
  <desc>Rhendra Networking brand logo in compact SVG Tiny PS format for BIMI.</desc>
  <rect width="511" height="511" fill="#CE57CE"/>
  <ellipse cx="493.129" cy="512.404" rx="346.942" ry="321.108" transform="rotate(-2.40846 493.129 512.404)" fill="url(#paint0_radial_3072_195)"/>
  <ellipse cx="-90.0917" cy="272.944" rx="525.354" ry="278" transform="rotate(-48.9087 -90.0917 272.944)" fill="url(#paint1_radial_3072_195)"/>
  <path d="M347.345 349.458C358.322 338.518 366.899 325.187 372.222 310.315L399.826 337.826C405.369 326.693 409.447 314.822 411.906 302.502C417.39 275.023 414.576 246.541 403.817 220.656C393.059 194.772 374.841 172.648 351.467 157.083C328.093 141.517 300.612 133.209 272.5 133.209C244.388 133.209 216.907 141.517 193.533 157.083C170.159 172.648 151.941 194.772 141.183 220.656C130.424 246.541 127.61 275.023 133.094 302.502C135.553 314.822 139.631 326.693 145.174 337.826L172.778 310.315C178.101 325.186 186.678 338.518 197.655 349.458L139.918 407C129.047 396.166 119.614 384.102 111.78 371.107C100.715 352.753 92.8385 332.543 88.6029 311.322C81.3681 275.073 85.0813 237.501 99.2727 203.355C113.464 169.21 137.496 140.026 168.331 119.493C199.165 98.9595 235.416 88 272.5 88C309.584 88 345.835 98.9595 376.669 119.493C407.504 140.026 431.536 169.21 445.727 203.355C459.919 237.501 463.632 275.073 456.397 311.322C452.162 332.543 444.285 352.753 433.22 371.107C425.391 384.092 415.967 396.149 405.106 406.976L405.082 407L347.345 349.458Z" fill="#672B67"/>
  <path d="M187.823 274.866C187.823 228.258 225.734 190.475 272.5 190.475C319.266 190.475 357.177 228.258 357.177 274.866C357.177 321.474 319.266 359.257 272.5 359.257C225.734 359.257 187.823 321.474 187.823 274.866Z" fill="#672B67"/>
  <path d="M330.345 330.458C341.322 319.518 349.899 306.187 355.222 291.315L382.826 318.826C388.369 307.693 392.447 295.822 394.906 283.502C400.39 256.023 397.576 227.541 386.817 201.656C376.059 175.772 357.841 153.648 334.467 138.083C311.093 122.517 283.612 114.209 255.5 114.209C227.388 114.209 199.907 122.517 176.533 138.083C153.159 153.648 134.941 175.772 124.183 201.656C113.424 227.541 110.61 256.023 116.094 283.502C118.553 295.822 122.631 307.693 128.174 318.826L155.778 291.315C161.101 306.186 169.678 319.518 180.655 330.458L122.918 388C112.047 377.166 102.614 365.102 94.7799 352.107C83.7152 333.753 75.8385 313.543 71.6029 292.322C64.3681 256.073 68.0813 218.501 82.2727 184.355C96.4641 150.21 120.496 121.026 151.331 100.493C182.165 79.9595 218.416 69 255.5 69C292.584 69 328.835 79.9595 359.669 100.493C390.504 121.026 414.536 150.21 428.727 184.355C442.919 218.501 446.632 256.073 439.397 292.322C435.162 313.543 427.285 333.753 416.22 352.107C408.391 365.092 398.967 377.149 388.106 387.976L388.082 388L330.345 330.458Z" fill="white"/>
  <path d="M170.823 255.866C170.823 209.258 208.734 171.475 255.5 171.475C302.266 171.475 340.177 209.258 340.177 255.866C340.177 302.474 302.266 340.257 255.5 340.257C208.734 340.257 170.823 302.474 170.823 255.866Z" fill="white"/>
  <defs>
    <radialGradient id="paint0_radial_3072_195" cx="0" cy="0" r="1" gradientUnits="userSpaceOnUse" gradientTransform="translate(493.129 512.404) rotate(90) scale(321.108 346.942)">
      <stop offset="0.475983" stop-color="#4B3EB5"/>
      <stop offset="1" stop-color="#CE57CE"/>
    </radialGradient>
    <radialGradient id="paint1_radial_3072_195" cx="0" cy="0" r="1" gradientUnits="userSpaceOnUse" gradientTransform="translate(-90.0917 272.944) rotate(90) scale(278 525.354)">
      <stop offset="0.475983" stop-color="#E71D2E"/>
      <stop offset="1" stop-color="#CE57CE"/>
    </radialGradient>
  </defs>
</svg>
